<svg width="33" height="33" viewBox="0 0 33 33" fill="none" xmlns="http://www.w3.org/2000/svg">
<path d="M21.6206 13.8393C18.8873 11.0926 14.434 11.0926 11.7006 13.8393C8.95396 16.586 8.95396 21.026 11.7006 23.7593C14.4473 26.506 18.8873 26.506 21.6206 23.7593C24.3673 21.0126 24.3673 16.5726 21.6206 13.8393ZM17.3673 19.506L15.2473 21.626C15.0473 21.826 14.794 21.9193 14.5406 21.9193C14.2873 21.9193 14.0206 21.826 13.834 21.626C13.4473 21.2393 13.4473 20.5993 13.834 20.1993L15.954 18.0793C16.3406 17.6926 16.9806 17.6926 17.3806 18.0793C17.7673 18.4793 17.7673 19.1193 17.3673 19.506Z" fill="#63D77D"/>
<path opacity="0.4" d="M26.7975 8.66528C26.5042 8.37195 26.1308 8.21191 25.7175 8.21191C25.3042 8.21191 24.9308 8.37194 24.6375 8.65194C24.0375 9.25194 24.0375 10.2119 24.6375 10.8119C24.9308 11.1053 25.3042 11.2653 25.7175 11.2653C26.1308 11.2653 26.5042 11.1053 26.7975 10.8253C27.0908 10.5319 27.2508 10.1586 27.2508 9.74528C27.2508 9.33195 27.0908 8.94528 26.7975 8.66528Z" fill="#63D77D"/>
<path opacity="0.4" d="M8.69145 26.7727C8.39811 26.4794 8.02478 26.3193 7.61145 26.3193C7.19812 26.3193 6.82479 26.4794 6.53145 26.7594C6.23812 27.0527 6.07812 27.426 6.07812 27.8394C6.07812 28.2527 6.23812 28.626 6.53145 28.9194C6.82479 29.2127 7.22478 29.3594 7.61145 29.3594C7.99812 29.3594 8.39811 29.2127 8.69145 28.906C9.27811 28.3327 9.27811 27.3594 8.69145 26.7727Z" fill="#63D77D"/>
<path opacity="0.4" d="M30.5475 17.7189C30.2675 17.4256 29.8808 17.279 29.4675 17.2656C29.0542 17.2656 28.6808 17.4256 28.3875 17.7189C27.7875 18.3189 27.7875 19.2789 28.3875 19.8789C28.6808 20.1722 29.0808 20.3189 29.4675 20.3189C29.8542 20.3189 30.2542 20.1722 30.5475 19.8789C31.1475 19.2789 31.1475 18.3056 30.5475 17.7189Z" fill="#63D77D"/>
<path opacity="0.4" d="M4.94593 17.7194C4.35926 17.1328 3.38594 17.1194 2.78594 17.7194C2.18594 18.3194 2.18594 19.2794 2.78594 19.8794C3.07927 20.1728 3.47927 20.3194 3.86593 20.3194C4.2526 20.3194 4.6526 20.1728 4.94593 19.8794C5.5326 19.2794 5.5326 18.3061 4.94593 17.7194Z" fill="#63D77D"/>
<path opacity="0.4" d="M26.7975 26.7723C26.1975 26.1723 25.2375 26.1723 24.6375 26.7723C24.0375 27.3723 24.0375 28.3323 24.6375 28.9323C24.9308 29.2256 25.3308 29.3723 25.7175 29.3723C26.1042 29.3723 26.5042 29.2256 26.7975 28.9323C27.0908 28.6389 27.2508 28.2523 27.2508 27.8523C27.2508 27.4389 27.0908 27.0523 26.7975 26.7723Z" fill="#63D77D"/>
<path opacity="0.4" d="M8.69145 8.66528C8.39811 8.37195 8.02478 8.21191 7.61145 8.21191C7.19812 8.21191 6.82479 8.37194 6.53145 8.65194C6.23812 8.94527 6.07812 9.3186 6.07812 9.73193C6.07812 10.1453 6.23815 10.5186 6.51815 10.8119C6.81148 11.1053 7.18481 11.2653 7.59814 11.2653C8.01148 11.2653 8.38481 11.1053 8.67814 10.8119C9.27814 10.2253 9.27811 9.25195 8.69145 8.66528Z" fill="#63D77D"/>
<path opacity="0.4" d="M17.7461 4.91875C17.7461 4.90542 17.7461 4.90542 17.7461 4.91875C17.1461 4.31875 16.1861 4.31875 15.5861 4.91875C15.2928 5.21208 15.1328 5.59875 15.1328 5.99875C15.1328 6.41208 15.2928 6.78541 15.5728 7.07874C15.8661 7.37208 16.2395 7.53211 16.6528 7.53211C17.0661 7.53211 17.4395 7.37208 17.7328 7.07874C18.3461 6.47874 18.3461 5.50542 17.7461 4.91875Z" fill="#63D77D"/>
</svg>
