<svg width="33" height="33" viewBox="0 0 33 33" fill="none" xmlns="http://www.w3.org/2000/svg">
<path opacity="0.4" d="M26.1544 13.0788C25.6344 13.0788 25.221 13.4921 25.221 14.0121V16.1188C25.221 20.8388 21.381 24.6788 16.661 24.6788C11.941 24.6788 8.10104 20.8388 8.10104 16.1188V13.9988C8.10104 13.4788 7.68771 13.0654 7.16771 13.0654C6.64771 13.0654 6.23438 13.4788 6.23438 13.9988V16.1054C6.23438 21.5321 10.4077 25.9988 15.7277 26.4788V29.3188C15.7277 29.8388 16.141 30.2521 16.661 30.2521C17.181 30.2521 17.5944 29.8388 17.5944 29.3188V26.4788C22.901 26.0121 27.0877 21.5321 27.0877 16.1054V13.9988C27.0744 13.4921 26.661 13.0788 26.1544 13.0788Z" fill="#63D77D"/>
<path d="M16.6668 3.58594C13.4134 3.58594 10.7734 6.22594 10.7734 9.47927V16.3059C10.7734 19.5593 13.4134 22.1993 16.6668 22.1993C19.9201 22.1993 22.5601 19.5593 22.5601 16.3059V9.47927C22.5601 6.22594 19.9201 3.58594 16.6668 3.58594ZM18.4134 12.8526C18.3201 13.1993 18.0134 13.4259 17.6668 13.4259C17.6001 13.4259 17.5334 13.4126 17.4668 13.3993C16.9468 13.2526 16.4001 13.2526 15.8801 13.3993C15.4534 13.5193 15.0401 13.2659 14.9334 12.8526C14.8134 12.4393 15.0668 12.0126 15.4801 11.9059C16.2668 11.6926 17.0934 11.6926 17.8801 11.9059C18.2801 12.0126 18.5201 12.4393 18.4134 12.8526ZM19.1201 10.2659C19.0001 10.5859 18.7068 10.7726 18.3868 10.7726C18.2934 10.7726 18.2134 10.7593 18.1201 10.7326C17.1868 10.3859 16.1468 10.3859 15.2134 10.7326C14.8134 10.8793 14.3601 10.6659 14.2134 10.2659C14.0668 9.86594 14.2801 9.4126 14.6801 9.27927C15.9601 8.8126 17.3734 8.8126 18.6534 9.27927C19.0534 9.42594 19.2668 9.86594 19.1201 10.2659Z" fill="#63D77D"/>
</svg>
