<svg width="33" height="33" viewBox="0 0 33 33" fill="none" xmlns="http://www.w3.org/2000/svg">
<path opacity="0.4" d="M23.7054 11.2793C23.6121 11.2659 23.5187 11.2659 23.4254 11.2793C21.3587 11.2126 19.7188 9.51927 19.7188 7.43927C19.7188 5.31927 21.4387 3.58594 23.5721 3.58594C25.6921 3.58594 27.4254 5.30594 27.4254 7.43927C27.4121 9.51927 25.7721 11.2126 23.7054 11.2793Z" fill="#63D77D"/>
<path opacity="0.4" d="M28.0554 20.5185C26.5621 21.5185 24.4688 21.8918 22.5354 21.6385C23.0421 20.5452 23.3088 19.3318 23.3221 18.0518C23.3221 16.7185 23.0288 15.4518 22.4688 14.3452C24.4421 14.0785 26.5354 14.4518 28.0421 15.4518C30.1488 16.8385 30.1488 19.1185 28.0554 20.5185Z" fill="#63D77D"/>
<path opacity="0.4" d="M8.92312 11.2793C9.01645 11.2659 9.10979 11.2659 9.20312 11.2793C11.2698 11.2126 12.9098 9.51927 12.9098 7.43927C12.9098 5.31927 11.1898 3.58594 9.05646 3.58594C6.93646 3.58594 5.20312 5.30594 5.20312 7.43927C5.21646 9.51927 6.85645 11.2126 8.92312 11.2793Z" fill="#63D77D"/>
<path opacity="0.4" d="M9.06552 18.0521C9.06552 19.3454 9.34552 20.5721 9.85219 21.6788C7.97219 21.8788 6.01219 21.4788 4.57219 20.5321C2.46552 19.1321 2.46552 16.8521 4.57219 15.4521C5.99885 14.4921 8.01219 14.1054 9.90552 14.3188C9.35885 15.4388 9.06552 16.7054 9.06552 18.0521Z" fill="#63D77D"/>
<path d="M16.4944 22.0789C16.3877 22.0656 16.2677 22.0656 16.1477 22.0789C13.6944 21.9989 11.7344 19.9856 11.7344 17.5056C11.7344 14.9723 13.7744 12.9189 16.321 12.9189C18.8544 12.9189 20.9077 14.9723 20.9077 17.5056C20.9077 19.9856 18.961 21.9989 16.4944 22.0789Z" fill="#63D77D"/>
<path d="M12.1662 24.8385C10.1529 26.1851 10.1529 28.3985 12.1662 29.7318C14.4596 31.2651 18.2196 31.2651 20.5129 29.7318C22.5263 28.3851 22.5263 26.1718 20.5129 24.8385C18.2329 23.3051 14.4729 23.3051 12.1662 24.8385Z" fill="#63D77D"/>
</svg>
