<svg width="33" height="33" viewBox="0 0 33 33" fill="none" xmlns="http://www.w3.org/2000/svg">
<path opacity="0.4" d="M25.7623 27.3451C25.509 27.3451 25.2556 27.2517 25.0556 27.0517C24.669 26.6651 24.669 26.0251 25.0556 25.6384C29.869 20.8251 29.869 12.9984 25.0556 8.19845C24.669 7.81178 24.669 7.17178 25.0556 6.78512C25.4423 6.39845 26.0823 6.39845 26.469 6.78512C32.0556 12.3718 32.0556 21.4651 26.469 27.0517C26.269 27.2517 26.0156 27.3451 25.7623 27.3451Z" fill="#63D77D"/>
<path opacity="0.4" d="M6.91229 27.3451C6.65896 27.3451 6.40562 27.2517 6.20562 27.0517C0.618958 21.4651 0.618958 12.3718 6.20562 6.78512C6.59229 6.39845 7.23229 6.39845 7.61895 6.78512C8.00562 7.17178 8.00562 7.81178 7.61895 8.19845C2.80562 13.0118 2.80562 20.8384 7.61895 25.6384C8.00562 26.0251 8.00562 26.6651 7.61895 27.0517C7.41895 27.2517 7.16562 27.3451 6.91229 27.3451Z" fill="#63D77D"/>
<path opacity="0.4" d="M16.3343 31.1986C14.6677 31.1852 13.081 30.9185 11.601 30.3985C11.081 30.2119 10.801 29.6386 10.9876 29.1186C11.1743 28.5986 11.7343 28.3186 12.2677 28.5052C13.5477 28.9452 14.9077 29.1852 16.3477 29.1852C17.7743 29.1852 19.1477 28.9452 20.4143 28.5052C20.9343 28.3319 21.5076 28.5986 21.6943 29.1186C21.881 29.6386 21.601 30.2119 21.081 30.3985C19.5877 30.9185 18.001 31.1986 16.3343 31.1986Z" fill="#63D77D"/>
<path opacity="0.4" d="M20.7398 5.37207C20.6331 5.37207 20.5131 5.35869 20.4065 5.31869C19.1265 4.87868 17.7531 4.63867 16.3265 4.63867C14.8998 4.63867 13.5398 4.87868 12.2598 5.31869C11.7398 5.49202 11.1665 5.2254 10.9798 4.7054C10.7932 4.1854 11.0732 3.61204 11.5932 3.42537C13.0732 2.90537 14.6731 2.63867 16.3265 2.63867C17.9798 2.63867 19.5798 2.90537 21.0598 3.42537C21.5798 3.61204 21.8598 4.1854 21.6732 4.7054C21.5398 5.11874 21.1531 5.37207 20.7398 5.37207Z" fill="#63D77D"/>
<path d="M11.9922 16.9188V14.6922C11.9922 11.9188 13.9522 10.7855 16.3522 12.1721L18.2855 13.2922L20.2189 14.4121C22.6189 15.7988 22.6189 18.0655 20.2189 19.4522L18.2855 20.5721L16.3522 21.6922C13.9522 23.0788 11.9922 21.9455 11.9922 19.1721V16.9188Z" fill="#63D77D"/>
</svg>
