<svg width="1440" height="211" viewBox="0 0 1440 211" fill="none" xmlns="http://www.w3.org/2000/svg">
<g opacity="0.5" clip-path="url(#clip0_15639_47742)">
<path d="M-98.5078 80.0262C-15.5134 106.119 150.481 213.214 316.478 210.49C482.47 207.766 565.467 74.2915 731.465 66.4063C897.456 58.5211 980.454 160.025 1146.45 171.064C1312.44 182.103 1494.98 127.911 1561.44 121.603C1627.89 115.294 1495.26 135.939 1478.72 139.523" stroke="#3A3A3A" stroke-width="2"/>
<path d="M-19.5 203.581C63.5004 180.642 323.009 37.7102 489 41.5811C654.998 45.452 763.104 185.115 929.096 186.118C1095.09 187.122 1178.09 58.0916 1344.08 57.0881C1510.08 56.0845 1740.14 176.799 1759.07 181.1C1778 185.401 1502.79 99.0945 1438.72 78.5931" stroke="#393636" stroke-width="2"/>
<path d="M-193.867 156.011C-110.874 136.656 55.1203 64.3993 221.119 59.238C387.109 54.0768 470.107 125.043 636.105 130.205C802.096 135.366 885.093 72.4278 1051.09 85.0441C1217.08 97.6604 1380.55 200.311 1466.08 193.286C1551.6 186.261 1476.19 78.5926 1478.72 49.9192" stroke="#797878" stroke-opacity="0.606042" stroke-width="2"/>
</g>
<defs>
<clipPath id="clip0_15639_47742">
<rect width="1440" height="211" fill="white" transform="matrix(1 0 0 -1 0 211)"/>
</clipPath>
</defs>
</svg>
