<svg width="32" height="33" viewBox="0 0 32 33" fill="none" xmlns="http://www.w3.org/2000/svg">
<path opacity="0.4" d="M15.9974 30.2526C23.3612 30.2526 29.3307 24.2831 29.3307 16.9193C29.3307 9.55547 23.3612 3.58594 15.9974 3.58594C8.6336 3.58594 2.66406 9.55547 2.66406 16.9193C2.66406 24.2831 8.6336 30.2526 15.9974 30.2526Z" fill="#63D77D"/>
<path d="M8 20.7718C7.45333 20.7718 7 20.3184 7 19.7718V14.0518C7 13.5051 7.45333 13.0518 8 13.0518C8.54667 13.0518 9 13.5051 9 14.0518V19.7718C9 20.3318 8.54667 20.7718 8 20.7718Z" fill="#63D77D"/>
<path d="M12 22.6782C11.4533 22.6782 11 22.2249 11 21.6782V12.1582C11 11.6115 11.4533 11.1582 12 11.1582C12.5467 11.1582 13 11.6115 13 12.1582V21.6782C13 22.2382 12.5467 22.6782 12 22.6782Z" fill="#63D77D"/>
<path d="M16 24.5853C15.4533 24.5853 15 24.132 15 23.5853V10.252C15 9.70529 15.4533 9.25195 16 9.25195C16.5467 9.25195 17 9.70529 17 10.252V23.5853C17 24.132 16.5467 24.5853 16 24.5853Z" fill="#63D77D"/>
<path d="M20 22.6782C19.4533 22.6782 19 22.2249 19 21.6782V12.1582C19 11.6115 19.4533 11.1582 20 11.1582C20.5467 11.1582 21 11.6115 21 12.1582V21.6782C21 22.2382 20.5467 22.6782 20 22.6782Z" fill="#63D77D"/>
<path d="M24 20.7718C23.4533 20.7718 23 20.3184 23 19.7718V14.0518C23 13.5051 23.4533 13.0518 24 13.0518C24.5467 13.0518 25 13.5051 25 14.0518V19.7718C25 20.3318 24.5467 20.7718 24 20.7718Z" fill="#63D77D"/>
</svg>
