<svg width="32" height="33" viewBox="0 0 32 33" fill="none" xmlns="http://www.w3.org/2000/svg">
<path d="M24.0004 23.252C23.787 23.252 23.587 23.1853 23.4004 23.052C22.9604 22.7187 22.867 22.092 23.2004 21.652C25.2937 18.8653 25.2937 14.972 23.2004 12.1853C22.867 11.7453 22.9604 11.1187 23.4004 10.7853C23.8404 10.452 24.467 10.5453 24.8004 10.9853C27.4137 14.4787 27.4137 19.3587 24.8004 22.852C24.6004 23.1187 24.307 23.252 24.0004 23.252Z" fill="#63D77D"/>
<path d="M26.4379 26.5856C26.2245 26.5856 26.0245 26.519 25.8379 26.3856C25.3979 26.0523 25.3045 25.4256 25.6379 24.9856C29.1979 20.239 29.1979 13.599 25.6379 8.85232C25.3045 8.41232 25.3979 7.78565 25.8379 7.45232C26.2779 7.11898 26.9045 7.21232 27.2379 7.65232C31.3312 13.1057 31.3312 20.7323 27.2379 26.1856C27.0512 26.4523 26.7445 26.5856 26.4379 26.5856Z" fill="#63D77D"/>
<path opacity="0.4" d="M21.0026 10.7992V23.0392C21.0026 25.3326 20.1759 27.0526 18.6959 27.8792C18.0959 28.2126 17.4293 28.3726 16.7359 28.3726C15.6693 28.3726 14.5226 28.0126 13.3493 27.2792L9.45594 24.8392C9.18927 24.6792 8.8826 24.5859 8.57594 24.5859H7.33594V9.25256H8.57594C8.8826 9.25256 9.18927 9.15923 9.45594 8.99923L13.3493 6.55923C15.2959 5.34589 17.2026 5.13256 18.6959 5.95923C20.1759 6.78589 21.0026 8.50589 21.0026 10.7992Z" fill="#63D77D"/>
<path d="M7.33073 9.25195V24.5853H6.66406C3.4374 24.5853 1.66406 22.812 1.66406 19.5853V14.252C1.66406 11.0253 3.4374 9.25195 6.66406 9.25195H7.33073Z" fill="#63D77D"/>
</svg>
